<svg xmlns="http://www.w3.org/2000/svg" viewBox="0 0 102.78 106.64"><defs><style>.cls-1{fill:#05668d;}.cls-2{fill:#427aa1;}</style></defs><title>AriusLogo</title><g id="Layer_2" data-name="Layer 2"><g id="Layer_1-2" data-name="Layer 1"><path class="cls-1" d="M90.39,49.14c0-7.07-15.55-11.67-30.42-15.77.69-7,2.22-13.91,4.24-18.52,8,1.26,15.7,3.92,20.9,8.15V7.57L82.79,18.23C44.66,6.59,24.82,16.18,27,22.05c4,10.55,51.47,14.7,54.91,26C84.21,55.54,53.49,68,18.59,54.41L14.47,64c.7,5.89,7.46-6.75,7.46-6.75,4.16,2.49,10.57,3.92,17.82,4.48-1.41,5.11-3,9.06-4.24,9.65a3.9,3.9,0,0,1-4.7-1.1L35,76.14c1.89-.39,4.92-6.51,7.29-14.29a116.67,116.67,0,0,0,17.83-.56c2.41,8,5.51,14.45,7.46,14.85l4.16-5.89A3.91,3.91,0,0,1,67,71.35c-1.29-.62-3-4.91-4.42-10.37C77.53,59.11,90.39,54.63,90.39,49.14ZM33.08,21.74c0-2.44,2.21-4.34,5.73-5.65a61.2,61.2,0,0,1,3,11.91C36.57,26.07,33.07,24.06,33.08,21.74ZM44.82,29A90.71,90.71,0,0,0,41.2,15.35c5.39-1.44,12.88-1.77,20.43-.86h0A89.63,89.63,0,0,0,57.19,32.6C52.77,31.38,48.5,30.21,44.82,29Z"/><path class="cls-1" d="M44,.08,32.22,0V3h9a36.58,36.58,0,0,1-3.8,10l2.83-.43C42.5,8.48,45.49,1.33,44,.08Z"/><path class="cls-1" d="M61.35,3H70.3V0L58.53.08c-1.45,1.21,1.28,7.93,3.55,12l2.73.22A35.67,35.67,0,0,1,61.35,3Z"/><path class="cls-2" d="M81.92,48.05C78.48,36.75,31,32.6,27,22.05c-2.19-5.87,17.65-15.46,55.78-3.82L85.11,7.57a3.72,3.72,0,0,0-1.41,0l-4.06,7.25a91,91,0,0,0-14.83-2.49l-2.73-.22a115.08,115.08,0,0,0-21.88.43L37.37,13C28,14.56,21.16,17.9,21.16,23.63c0,6.25,10.09,10.08,21.66,13.25l3,.8c3.62.94,7.31,1.84,10.83,2.74l2.9.76c9.58,2.55,17.17,5.24,17.11,9.23-.06,3.83-6.23,6.45-14.84,7.52l-2.59.24a85.64,85.64,0,0,1-15.85-.24l-2.61-.33c-9.1-1.25-18-4-24.17-8.38-1.42-.95-2.12-.16-2.12-.16V64l4.12-9.56C53.49,68,84.21,55.54,81.92,48.05Z"/><path class="cls-1" d="M59.54,41.18l-2.9-.76v.47a73.6,73.6,0,0,0,2.58,17.28l2.59-.24A81.26,81.26,0,0,1,59.54,41.18Z"/><path class="cls-1" d="M45.88,40.9c0-1.08,0-2.15-.07-3.22l-3-.8c.08,1.38.13,2.76.14,4.09a79.6,79.6,0,0,1-2.2,16.63l2.61.33A73,73,0,0,0,45.88,40.9Z"/><path id="Arius" class="cls-1" d="M97.37,92.87c.24-3.27-1.45-3.71-3.18-4.58-.89-.44-2.89-1.24-2.24-2.94s2-1.56,4.24-.71l.59-1.47c-2-1.53-6.71-1-6.71,2.35s2.05,3.83,3.35,4.3S96,91.6,95.53,93l-5.61.44-9.28.79a4.36,4.36,0,0,0,.65-1.77V82.58H79.53v9.83a3,3,0,0,1-5.66,0V82.58H72v10a4.07,4.07,0,0,0,1,2.31q-5.34.46-10.68,1V82.58H60.51V96l-7.7.71-4.48-7C49.4,89.7,51,88,51,86.29s-1.66-3.71-3.24-3.71H42.86V97.71l-7.32.72-6.12-16h-.58L22,99.84l-1.6.17a18,18,0,0,1-5-4.65A8.9,8.9,0,0,1,14.51,94a5.43,5.43,0,0,1-.27-.7,3.16,3.16,0,0,1-.14-.68,9,9,0,0,1,.24-3.27,8.24,8.24,0,0,1,1.58-3.19,7.94,7.94,0,0,1,2.92-2.28A11.92,11.92,0,0,0,13,88.67a7.63,7.63,0,0,0-1.24,4,5.66,5.66,0,0,0,.14,1.16,6.66,6.66,0,0,0,.37,1.06,10.6,10.6,0,0,0,1,1.85,14.85,14.85,0,0,0,3.55,3.61l-4,.42c-4.28.47-8.56.94-12.83,1.45,4.3-.31,8.58-.67,12.87-1l4.6-.39c.59.39,1.19.76,1.79,1.09a36.15,36.15,0,0,0,7.15,2.85,47.86,47.86,0,0,0,15,1.83A36.58,36.58,0,0,0,56,103.26a36.36,36.36,0,0,1-14.57,2.52,46.71,46.71,0,0,1-14.49-2.58,31.58,31.58,0,0,1-5.67-2.68l4.48-.38c8.57-.73,17.14-1.56,25.71-2.33s17.13-1.66,25.68-2.55L90,93.91c4.28-.47,8.56-.94,12.83-1.45ZM44.62,84.23c4.06-.39,4.47,1.09,4.48,2.22s-.42,2.22-4.48,2.22Zm-.06,5.83h1.95l4.24,6.87-6.2.61ZM29,85.82,31,91.53H27ZM25.67,99.43l-1.57.16L26.37,93h5.12l1.88,5.65q-3.85.38-7.71.78Z"/><path class="cls-1" d="M60.29,99.16v.46l-.93.1-.05,3-.48,0,0-3-.9.09V99.4Z"/><path class="cls-1" d="M61.66,102.37a1.53,1.53,0,0,1-.68-.5,1.6,1.6,0,0,1-.32-.87,2.07,2.07,0,0,1,.12-.91,1.93,1.93,0,0,1,.58-.79,1.82,1.82,0,0,1,1-.39,1.84,1.84,0,0,1,.84.11,1.43,1.43,0,0,1,.67.5,1.69,1.69,0,0,1,.33.87,1.9,1.9,0,0,1-.13.9,1.85,1.85,0,0,1-.57.79,1.91,1.91,0,0,1-1,.4A1.81,1.81,0,0,1,61.66,102.37Zm1.55-.64a1.4,1.4,0,0,0,.41-.59,1.62,1.62,0,0,0,.09-.68,1.2,1.2,0,0,0-1.33-1.1,1.3,1.3,0,0,0-1.16.88,1.49,1.49,0,0,0-.08.69,1.27,1.27,0,0,0,.21.59,1.18,1.18,0,0,0,.48.4,1.11,1.11,0,0,0,.63.1A1.4,1.4,0,0,0,63.21,101.73Z"/><path class="cls-1" d="M65.79,101.94a1.46,1.46,0,0,1-.68-.5,1.6,1.6,0,0,1-.32-.87,2.07,2.07,0,0,1,.12-.91,1.93,1.93,0,0,1,.58-.79,1.79,1.79,0,0,1,1-.39,1.84,1.84,0,0,1,.84.11,1.43,1.43,0,0,1,.67.5,1.69,1.69,0,0,1,.33.87,2,2,0,0,1-.7,1.7,1.91,1.91,0,0,1-1.83.28Zm1.54-.64a1.29,1.29,0,0,0,.42-.59,1.6,1.6,0,0,0,.09-.68,1.25,1.25,0,0,0-.22-.59,1.1,1.1,0,0,0-.48-.4,1.13,1.13,0,0,0-.63-.11,1.4,1.4,0,0,0-.75.29,1.44,1.44,0,0,0-.41.6,1.45,1.45,0,0,0-.08.68,1.23,1.23,0,0,0,.21.59,1.19,1.19,0,0,0,1.11.5A1.26,1.26,0,0,0,67.33,101.3Z"/><path class="cls-1" d="M69.6,98.19l0,3.06,1.77-.18v.46l-2.23.23.06-3.52Z"/><path class="cls-1" d="M73.39,98.29a1,1,0,0,0-.42,0,.67.67,0,0,0-.45.19.49.49,0,0,0-.12.36.39.39,0,0,0,.21.31,2.71,2.71,0,0,0,.53.24,1.87,1.87,0,0,1,.6.3.76.76,0,0,1,.26.55,1.07,1.07,0,0,1-.08.52,1,1,0,0,1-.36.44,1.18,1.18,0,0,1-.63.22,1.62,1.62,0,0,1-.66,0,2.12,2.12,0,0,1-.57-.26l.21-.38a1.57,1.57,0,0,0,.45.22,1.32,1.32,0,0,0,.51.06.79.79,0,0,0,.48-.21.6.6,0,0,0,.17-.44.44.44,0,0,0-.19-.34,1.87,1.87,0,0,0-.47-.24,3.16,3.16,0,0,1-.46-.18,1,1,0,0,1-.31-.24.64.64,0,0,1-.17-.39A1,1,0,0,1,72,98.4a.85.85,0,0,1,.37-.38,1.24,1.24,0,0,1,.55-.18,2.09,2.09,0,0,1,.58,0,1.78,1.78,0,0,1,.5.19l-.19.37A2,2,0,0,0,73.39,98.29Z"/><path class="cls-1" d="M78.35,100.79a1.72,1.72,0,0,1-.52.12,1.94,1.94,0,0,1-.83-.09,1.44,1.44,0,0,1-.67-.48,1.69,1.69,0,0,1-.33-.88,2.29,2.29,0,0,1,.09-.94,1.85,1.85,0,0,1,2.15-1.14,1.65,1.65,0,0,1,.51.2l-.2.44a1.32,1.32,0,0,0-.4-.18,1.34,1.34,0,0,0-.49,0,1.23,1.23,0,0,0-.7.28,1.15,1.15,0,0,0-.4.57,1.66,1.66,0,0,0-.08.74,1.25,1.25,0,0,0,.22.61,1.06,1.06,0,0,0,.46.38,1.35,1.35,0,0,0,.64.09,1.11,1.11,0,0,0,.4-.11,2.37,2.37,0,0,0,.34-.19l.2.41A2.36,2.36,0,0,1,78.35,100.79Z"/><path class="cls-1" d="M81.35,99.56,80,99.7l-.39,1-.46,0,1.58-3.82h0l1.45,3.51-.54,0Zm-.15-.39L80.73,98l-.54,1.32Z"/><path class="cls-1" d="M86,96.5l-.07,3.63h0l-2.5-2.37,0,2.52-.47,0L83,96.7h0l2.5,2.4,0-2.56Z"/><path class="cls-1" d="M88.75,98.8l-1.33.13-.39,1-.46,0,1.58-3.83h0l1.45,3.51-.54.05Zm-.15-.4-.47-1.2-.54,1.31Z"/><path class="cls-1" d="M90.35,96l1-.1a1.77,1.77,0,0,1,.95.11,1.24,1.24,0,0,1,.58.5,1.75,1.75,0,0,1,.24.74s0,.11,0,.19a1.92,1.92,0,0,1-.2,1,1.75,1.75,0,0,1-.61.68,2,2,0,0,1-.89.31l-1.17.12ZM91.4,99a1.51,1.51,0,0,0,.71-.25,1.22,1.22,0,0,0,.45-.55,1.59,1.59,0,0,0,.1-.83,1.07,1.07,0,0,0-.21-.59,1,1,0,0,0-.45-.33,1.43,1.43,0,0,0-.59-.06l-.6.07,0,2.6Z"/><path class="cls-1" d="M95.55,98.09l-1.33.14-.39,1-.46,0L95,95.42h0l1.45,3.5-.54.06Zm-.15-.39-.47-1.21-.54,1.31Z"/><path class="cls-1" d="M97,98.43a.32.32,0,0,1,.19-.1.19.19,0,0,1,.16,0,.23.23,0,0,1,.08.16.24.24,0,0,1-.07.21.27.27,0,0,1-.18.1.19.19,0,0,1-.16,0,.24.24,0,0,1-.09-.15A.36.36,0,0,1,97,98.43Z"/></g></g></svg>