<svg xmlns="http://www.w3.org/2000/svg" viewBox="0 0 92.52 96"><defs><style>.cls-1{fill:#fff;}</style></defs><title>logo-w</title><g id="Layer_2" data-name="Layer 2"><g id="Landing"><path class="cls-1" d="M81.36,44.23c0-6.36-14-10.5-27.38-14.19.63-6.27,2-12.52,3.82-16.67C65,14.5,71.94,16.89,76.62,20.7V6.82l-2.1,9.59C40.2,5.94,22.34,14.56,24.32,19.85c3.55,9.5,46.32,13.23,49.43,23.41,2,6.74-25.6,17.94-57,5.72L13,57.59c.64,5.29,6.72-6.08,6.72-6.08,3.75,2.24,9.51,3.52,16.05,4-1.28,4.6-2.7,8.16-3.82,8.68a3.53,3.53,0,0,1-4.24-1l3.74,5.3c1.7-.35,4.43-5.86,6.56-12.86a105,105,0,0,0,16.06-.51c2.16,7.24,4.95,13,6.71,13.37l3.75-5.3a3.53,3.53,0,0,1-4.24,1c-1.17-.55-2.69-4.41-4-9.32C69.79,53.21,81.36,49.18,81.36,44.23ZM29.78,19.57c0-2.19,2-3.91,5.15-5.08a54.94,54.94,0,0,1,2.74,10.72C32.92,23.47,29.77,21.66,29.78,19.57Zm10.56,6.54a81.47,81.47,0,0,0-3.25-12.29c4.85-1.3,11.6-1.59,18.39-.78h0a81,81,0,0,0-4,16.31C47.5,28.25,43.66,27.19,40.34,26.11Z"/><path class="cls-1" d="M39.61.07,29,0V2.68h8.05a33,33,0,0,1-3.42,9l2.54-.38C38.26,7.63,41,1.2,39.61.07Z"/><path class="cls-1" d="M55.23,2.68h8.05V0L52.68.07c-1.3,1.09,1.16,7.14,3.21,10.83l2.45.2A31.82,31.82,0,0,1,55.23,2.68Z"/><path class="cls-1" d="M73.75,43.26C70.64,33.08,27.87,29.35,24.32,19.85c-2-5.29,15.88-13.91,50.2-3.44l2.1-9.59a3.07,3.07,0,0,0-1.28,0l-3.65,6.52A80.56,80.56,0,0,0,58.34,11.1l-2.45-.2a103,103,0,0,0-19.71.39l-2.54.38C25.24,13.1,19,16.11,19,21.27c0,5.63,9.09,9.08,19.51,11.93l2.68.72c3.26.84,6.59,1.65,9.75,2.46l2.62.69c8.62,2.3,15.46,4.72,15.4,8.31,0,3.44-5.61,5.8-13.36,6.77l-2.33.22A78.18,78.18,0,0,1,39,52.15l-2.35-.3c-8.19-1.13-16.23-3.57-21.76-7.55-1.27-.85-1.91-.14-1.91-.14V57.59L16.74,49C48.15,61.2,75.8,50,73.75,43.26Z"/><path class="cls-1" d="M53.6,37.07,51,36.38v.43a66.09,66.09,0,0,0,2.33,15.56l2.33-.22A73.72,73.72,0,0,1,53.6,37.07Z"/><path class="cls-1" d="M41.3,36.82c0-1,0-1.94-.07-2.9l-2.68-.72c.07,1.24.11,2.48.12,3.68a71.44,71.44,0,0,1-2,15l2.35.3A65.59,65.59,0,0,0,41.3,36.82Z"/><path id="Arius" class="cls-1" d="M87.65,83.6c.21-2.95-1.3-3.34-2.86-4.12-.8-.4-2.6-1.12-2-2.65s1.83-1.4,3.82-.64l.53-1.32c-1.8-1.38-6-.9-6,2.12s1.85,3.44,3,3.87,2.33,1.6,1.91,2.87l-5.06.39-8.35.71a3.93,3.93,0,0,0,.59-1.59v-8.9H71.59v8.85a2.65,2.65,0,0,1-5.09,0V74.34H64.81v9a3.69,3.69,0,0,0,.92,2.09l-9.62.87v-12H54.47V86.45l-6.93.63-4-6.33c1,0,2.39-1.5,2.39-3.07S44.4,74.34,43,74.34H38.58V88L32,88.61,26.48,74.19H26L19.77,89.88,18.33,90a16.42,16.42,0,0,1-4.53-4.18,7.75,7.75,0,0,1-.74-1.28,5.86,5.86,0,0,1-.24-.62,3.25,3.25,0,0,1-.13-.62,7.89,7.89,0,0,1,.22-2.94,7.41,7.41,0,0,1,1.42-2.88A7.14,7.14,0,0,1,17,75.46a10.78,10.78,0,0,0-5.29,4.36,6.9,6.9,0,0,0-1.11,3.61,5.37,5.37,0,0,0,.12,1,8.22,8.22,0,0,0,.33,1,10.76,10.76,0,0,0,.9,1.67,13.31,13.31,0,0,0,3.2,3.24l-3.56.38C7.7,91.14,3.85,91.56,0,92c3.87-.27,7.72-.59,11.59-.89l4.14-.35c.52.35,1.07.67,1.61,1a32.5,32.5,0,0,0,6.44,2.56A42.76,42.76,0,0,0,37.28,96,33,33,0,0,0,50.4,93a32.46,32.46,0,0,1-13.13,2.27,41.9,41.9,0,0,1-13-2.32,28.39,28.39,0,0,1-5.11-2.41l4-.35c7.72-.66,15.43-1.4,23.14-2.09s15.42-1.5,23.13-2.3L81,84.54c3.85-.43,7.7-.85,11.55-1.31C90.9,83.34,89.28,83.47,87.65,83.6ZM40.17,75.82c3.65-.35,4,1,4,2s-.38,2-4,2Zm-.06,5.25h1.76l3.81,6.19-5.57.55Zm-14-3.82,1.75,5.14H24.32Zm-3,12.25-1.42.15,2-5.93h4.61L30,88.81c-2.31.22-4.63.45-6.94.69Z"/><path class="cls-1" d="M54.27,89.26v.42l-.83.08,0,2.75-.43,0,0-2.75-.82.08v-.41Z"/><path class="cls-1" d="M55.5,92.15a1.33,1.33,0,0,1-.6-.45,1.51,1.51,0,0,1-.3-.78,1.82,1.82,0,0,1,.12-.82,1.68,1.68,0,0,1,.51-.71,1.77,1.77,0,0,1,1.65-.26,1.41,1.41,0,0,1,.61.45,1.5,1.5,0,0,1,.29.79,1.77,1.77,0,0,1-.11.81,1.68,1.68,0,0,1-1.41,1.07A1.77,1.77,0,0,1,55.5,92.15Zm1.4-.57a1.25,1.25,0,0,0,.37-.54,1.29,1.29,0,0,0,.08-.61,1.15,1.15,0,0,0-.2-.53,1,1,0,0,0-.43-.36,1,1,0,0,0-.57-.1,1.23,1.23,0,0,0-.67.27,1.16,1.16,0,0,0-.37.53,1.45,1.45,0,0,0-.08.61,1.14,1.14,0,0,0,.2.54,1.08,1.08,0,0,0,.43.36,1.06,1.06,0,0,0,.56.09A1.3,1.3,0,0,0,56.9,91.58Z"/><path class="cls-1" d="M59.22,91.77a1.41,1.41,0,0,1-.61-.45,1.54,1.54,0,0,1-.29-.79,1.77,1.77,0,0,1,.11-.81,1.68,1.68,0,0,1,1.41-1.07,1.75,1.75,0,0,1,.76.1,1.41,1.41,0,0,1,.61.45,1.5,1.5,0,0,1,.29.78,1.69,1.69,0,0,1-.12.82,1.68,1.68,0,0,1-.51.71,1.65,1.65,0,0,1-.89.35A1.61,1.61,0,0,1,59.22,91.77Zm1.39-.58a1.22,1.22,0,0,0,.38-.53,1.45,1.45,0,0,0,.08-.61,1.14,1.14,0,0,0-.2-.54,1.08,1.08,0,0,0-.43-.36,1.11,1.11,0,0,0-.57-.09,1.17,1.17,0,0,0-1,.79,1.5,1.5,0,0,0-.08.62A1.15,1.15,0,0,0,59,91a1,1,0,0,0,.42.36,1,1,0,0,0,.57.09A1.12,1.12,0,0,0,60.61,91.19Z"/><path class="cls-1" d="M62.66,88.39l0,2.76L64.2,91v.41l-2,.21.06-3.17Z"/><path class="cls-1" d="M66.07,88.48a1.27,1.27,0,0,0-.38,0,.6.6,0,0,0-.41.18.43.43,0,0,0-.11.32.38.38,0,0,0,.19.28,2.51,2.51,0,0,0,.48.21,1.7,1.7,0,0,1,.54.27.72.72,0,0,1,.23.5.83.83,0,0,1-.07.46.88.88,0,0,1-.32.4,1.11,1.11,0,0,1-.57.2,1.67,1.67,0,0,1-.59,0,2.25,2.25,0,0,1-.52-.24l.2-.34a1.36,1.36,0,0,0,.4.2,1.2,1.2,0,0,0,.45.05.66.66,0,0,0,.43-.19.53.53,0,0,0,.16-.39A.39.39,0,0,0,66,90a1.57,1.57,0,0,0-.43-.21l-.4-.17a1,1,0,0,1-.29-.21.66.66,0,0,1-.15-.35.88.88,0,0,1,.08-.49,1,1,0,0,1,.33-.35,1.17,1.17,0,0,1,.51-.15,1.75,1.75,0,0,1,.52,0,1.49,1.49,0,0,1,.44.17l-.17.33A1.74,1.74,0,0,0,66.07,88.48Z"/><path class="cls-1" d="M70.53,90.73a1.79,1.79,0,0,1-.47.11,1.68,1.68,0,0,1-.74-.08,1.39,1.39,0,0,1-.61-.44,1.52,1.52,0,0,1-.3-.78,2.08,2.08,0,0,1,.09-.86A1.58,1.58,0,0,1,69,88a1.55,1.55,0,0,1,.91-.35,1.67,1.67,0,0,1,.55,0,1.7,1.7,0,0,1,.46.18l-.18.4a1.33,1.33,0,0,0-.36-.17,1.29,1.29,0,0,0-.44,0,1.22,1.22,0,0,0-.64.25,1.17,1.17,0,0,0-.35.52,1.46,1.46,0,0,0-.07.66A1.13,1.13,0,0,0,69,90a1,1,0,0,0,.42.34,1.11,1.11,0,0,0,.58.08,1.2,1.2,0,0,0,.35-.09l.31-.18.18.37A1.62,1.62,0,0,1,70.53,90.73Z"/><path class="cls-1" d="M73.23,89.63l-1.2.12-.35.87-.42,0,1.43-3.44h0L74,90.37l-.48,0Zm-.14-.36-.42-1.09-.48,1.19Z"/><path class="cls-1" d="M77.39,86.86l-.06,3.28h0L75.07,88l0,2.27-.42,0,.06-3.26h0l2.25,2.16,0-2.3Z"/><path class="cls-1" d="M79.89,88.94l-1.2.12-.35.87-.41,0,1.42-3.44h0l1.31,3.15-.49,0Zm-.14-.36-.42-1.09-.48,1.19Z"/><path class="cls-1" d="M81.33,86.46l.92-.1a1.78,1.78,0,0,1,.86.1,1.21,1.21,0,0,1,.52.45,1.6,1.6,0,0,1,.21.67.81.81,0,0,1,0,.17,1.74,1.74,0,0,1-.18.87,1.5,1.5,0,0,1-.55.62,1.81,1.81,0,0,1-.8.27l-1,.11Zm.94,2.65a1.43,1.43,0,0,0,.64-.22,1.11,1.11,0,0,0,.41-.5,1.49,1.49,0,0,0,.1-.75,1.05,1.05,0,0,0-.2-.53.8.8,0,0,0-.41-.29,1.16,1.16,0,0,0-.53-.06l-.54.06,0,2.35Z"/><path class="cls-1" d="M86,88.3l-1.2.13-.35.86-.41,0,1.42-3.44h0l1.31,3.16-.49,0ZM85.88,88l-.43-1.09L85,88Z"/><path class="cls-1" d="M87.27,88.61a.23.23,0,0,1,.18-.09.18.18,0,0,1,.14,0,.21.21,0,0,1,.07.15.2.2,0,0,1-.06.18.21.21,0,0,1-.16.09.16.16,0,0,1-.15,0,.18.18,0,0,1-.08-.14A.33.33,0,0,1,87.27,88.61Z"/></g></g></svg>