<svg xmlns="http://www.w3.org/2000/svg" viewBox="0 0 33.36 28.02"><defs><style>.cls-1{fill:#fff;}</style></defs><title>cart-icon</title><g id="Layer_2" data-name="Layer 2"><g id="Landing"><circle class="cls-1" cx="28.54" cy="25.98" r="2.04"/><circle class="cls-1" cx="10" cy="25.98" r="2.04"/><path class="cls-1" d="M8.38,20.26H30.11a.46.46,0,0,1,.46.46v1.66a.46.46,0,0,1-.46.46H9.3a1.38,1.38,0,0,1-1.38-1.38v-.75a.46.46,0,0,1,.46-.46Z" transform="translate(38.5 43.1) rotate(-180)"/><path class="cls-1" d="M1.29,0H5.87a1.73,1.73,0,0,1,.32,0l26,3.14A1.49,1.49,0,0,1,33.28,5.1L29.89,17.72a1.48,1.48,0,0,1-1.41,1H9.13a1.49,1.49,0,0,1-1.46-1.18l-3.08-15H1.29A1.3,1.3,0,0,1,1.29,0Z"/></g></g></svg>